<?xml version='1.0' encoding='iso-8859-1'?>
<!DOCTYPE svg PUBLIC '-//W3C//DTD SVG 1.1//EN' 'http://www.w3.org/Graphics/SVG/1.1/DTD/svg11.dtd'>
<!-- Uploaded to: SVG Repo, www.svgrepo.com, Generator: SVG Repo Mixer Tools -->
<svg fill="#000000" height="300px" width="800px" version="1.1" xmlns="http://www.w3.org/2000/svg" viewBox="0 0 307.45 307.45" xmlns:xlink="http://www.w3.org/1999/xlink" enable-background="new 0 0 307.45 307.45">
  <g>
    <circle cx="40.483" cy="40.085" r="27.59"/>
    <circle cx="195.35" cy="33.018" r="25.907"/>
    <path d="m210.22,209.538l2.531,6.9-13.835,65.324c-1.716,8.105 3.463,16.065 11.567,17.782 1.048,0.222 2.092,0.328 3.122,0.328 6.936-0.001 13.165-4.839 14.66-11.896l14.265-67.357-5.513-4.752-26.797-6.329z"/>
    <path d="m137.793,73.313c0,0-37.262-5.295-51.681-7.358-5.839-0.836-10.679,0.981-12.242,1.578-7.762,2.964-31.05,11.856-31.05,11.856-9.616,3.672-14.435,14.444-10.764,24.06l6.638,17.386 5.143-1.322 23.05-34.417-15.627,44.899-41.5,10.666c-6.559,1.686-10.913,8.195-9.491,14.815 1.195,5.567 5.876,9.41 11.195,9.849 1.355,0.112 2.75,0.004 4.141-0.354l48.369-12.432c4.054-1.042 7.317-4.044 8.694-7.998l17.256-49.581-5.322,50.83c-1.249,9.495-6.586,14.861-14.551,16.909l-10.676,2.744 2.792,7.311-17.945,48.326c-0.751,2.024-1.058,4.186-0.897,6.338l4.286,57.567c0.587,7.883 7.165,13.888 14.943,13.888 0.373,0 0.751-0.015 1.129-0.042 8.262-0.615 14.46-7.811 13.846-16.072l-4.043-54.305 17.901-45.274c0.396-1.001 1.268-1.737 2.322-1.958 2.44-0.512 4.505,1.836 3.685,4.191l-11.532,33.111c-1.133,3.059-1.239,6.403-0.301,9.526l18.495,61.597c1.95,6.496 7.909,10.69 14.36,10.69 1.429,0 2.881-0.206 4.319-0.638 7.935-2.382 12.436-10.745 10.053-18.68l-17.05-56.783 16.749-45.194c1.477-3.987 1.142-8.196-0.574-11.743l-10.563-27.664 25.703-48.053c1.924-3.598 1.972-7.907 0.127-11.547-1.843-3.638-5.348-6.147-9.387-6.722zm-28.251,35.395l-5.72-14.981 12.762,1.817-7.042,13.164z"/>
    <path d="m302.243,216.643l-42.801-36.895c-1.825-1.573-4.001-2.683-6.346-3.237l-72.533-17.136 47.755,.703v-26.053c-2.827-0.332-5.599-1.156-8.142-2.43-0.826-0.414-1.602-0.922-2.311-1.514l-39.244-32.74 46.932,23.525c3.743,1.876 8.175,1.754 11.809-0.325l43.349-24.798c1.246-0.713 2.323-1.608 3.216-2.632 3.402-3.9 4.142-9.678 1.427-14.425-3.428-5.993-11.064-8.071-17.057-4.643l-37.531,21.47-42.5-21.304 40.517,8.614 33.557-19.196c2.964-1.695 6.252-2.738 9.627-3.091l12.303-13.364c4.676-5.079 4.349-12.986-0.73-17.662-5.078-4.677-12.987-4.35-17.662,0.73l-30.917,33.583-18.133,2.86h-37.218c-9.665,0-17.472,7.835-17.472,17.501v90.394-0.024c0.252,6.569 4.819,12.433 11.528,14.018l68.967,16.292 40.023,34.501c2.834,2.442 6.318,3.64 9.787,3.639 4.213,0 8.402-1.766 11.368-5.206 5.409-6.276 4.707-15.746-1.568-21.155z"/>
  </g>
</svg>