<svg id="svg" version="1.1" xmlns="http://www.w3.org/2000/svg" xmlns:xlink="http://www.w3.org/1999/xlink" width="400" height="427.95899347623487" viewBox="0, 0, 400,427.95899347623487"><g id="svgg"><path id="path0" d="M199.467 1.351 C 199.260 1.992,198.746 3.858,198.325 5.499 C 195.963 14.707,192.516 22.299,184.613 35.694 C 179.063 45.101,176.897 48.885,174.740 52.936 C 159.141 82.238,157.872 102.984,170.797 117.393 C 172.029 118.766,172.931 119.582,173.066 119.448 C 173.106 119.407,172.595 117.532,171.930 115.279 C 166.524 96.958,166.364 89.856,171.036 75.626 C 173.871 66.990,178.143 57.825,187.042 41.286 C 191.783 32.474,195.959 24.273,197.561 20.623 C 198.153 19.276,198.931 17.594,199.289 16.886 L 199.941 15.598 200.695 16.979 C 201.110 17.738,201.852 19.324,202.345 20.503 C 203.604 23.516,207.984 32.135,212.765 41.007 C 221.967 58.084,225.953 66.603,228.895 75.486 C 233.577 89.620,233.383 97.320,227.878 115.823 C 226.700 119.782,226.701 119.871,227.892 118.721 C 238.575 108.415,240.764 93.012,234.300 73.625 C 230.747 62.967,226.840 55.168,215.020 35.135 C 207.515 22.417,203.758 14.042,201.473 4.939 C 200.170 -0.251,200.053 -0.460,199.467 1.351 M200.018 81.489 C 199.926 81.726,197.945 86.911,195.616 93.010 L 191.381 104.101 184.387 119.012 C 176.712 135.377,176.261 136.399,175.942 138.138 C 175.558 140.224,176.140 141.783,179.872 148.662 C 185.060 158.223,185.954 162.033,184.083 166.597 C 181.328 173.314,177.769 178.969,173.242 183.820 L 170.753 186.486 170.745 188.533 L 170.736 190.580 172.715 188.627 C 177.762 183.642,182.648 176.942,185.835 170.638 C 189.603 163.182,188.957 158.854,182.223 146.459 C 179.509 141.464,179.237 140.738,179.363 138.839 C 179.477 137.145,179.433 137.253,184.433 126.095 C 193.268 106.379,197.805 96.718,198.095 97.007 C 198.169 97.081,198.229 101.486,198.229 106.796 L 198.229 116.449 197.484 115.940 C 196.348 115.165,193.843 113.830,193.733 113.941 C 193.679 113.995,193.473 115.242,193.277 116.712 C 192.040 125.961,189.940 136.290,188.360 140.898 C 187.814 142.490,187.849 142.609,188.732 142.133 C 191.986 140.381,193.788 134.943,194.969 123.317 C 195.183 121.213,195.647 119.460,196.022 119.341 C 196.273 119.261,197.508 122.361,198.156 124.697 L 198.595 126.281 198.651 144.921 C 198.698 160.255,198.658 164.179,198.427 167.049 L 198.145 170.538 197.028 172.921 C 189.376 189.237,179.715 201.682,172.079 205.054 L 170.736 205.647 170.736 207.403 C 170.736 209.479,170.509 209.436,173.542 207.933 C 181.361 204.057,185.849 198.912,194.690 183.691 C 199.345 175.677,200.079 174.469,200.206 174.605 C 200.277 174.681,201.403 176.589,202.709 178.844 C 212.954 196.541,215.816 200.442,221.901 205.001 C 223.659 206.318,228.692 209.133,229.290 209.133 C 229.378 209.133,229.450 208.336,229.450 207.361 L 229.450 205.589 228.658 205.272 C 221.866 202.554,214.890 194.456,206.717 179.801 C 204.901 176.544,202.376 171.371,202.021 170.177 C 201.596 168.751,201.670 126.810,202.101 124.780 C 202.498 122.908,204.034 119.105,204.393 119.105 C 204.728 119.105,205.103 120.945,205.506 124.568 C 206.724 135.524,208.498 140.505,211.789 142.203 C 212.521 142.580,212.544 142.446,212.015 140.898 C 210.443 136.302,208.651 127.610,207.275 117.905 C 206.973 115.772,206.684 113.985,206.634 113.935 C 206.444 113.744,204.125 115.212,203.469 115.938 L 202.783 116.697 202.510 116.044 C 201.805 114.355,201.547 100.275,202.167 97.307 C 202.401 96.189,209.234 110.639,219.351 133.644 L 220.949 137.279 220.950 139.049 C 220.952 141.174,220.702 141.859,218.475 145.833 C 213.575 154.579,211.839 160.082,212.461 164.900 C 213.063 169.564,220.555 181.574,226.565 187.512 L 229.301 190.214 229.171 187.884 L 229.041 185.555 228.076 184.529 C 220.912 176.917,215.597 167.512,215.593 162.442 C 215.591 159.048,217.502 153.783,220.699 148.369 C 225.465 140.302,225.463 138.899,220.675 129.327 C 217.629 123.239,216.776 121.416,212.357 111.556 C 210.564 107.558,208.313 102.693,207.353 100.746 C 205.221 96.419,200.559 83.227,200.559 81.519 C 200.559 81.081,200.185 81.061,200.018 81.489 M112.604 110.391 C 109.650 117.327,108.825 127.028,110.444 135.788 C 115.267 161.873,139.918 186.507,165.262 190.565 L 166.878 190.824 166.761 188.189 C 165.394 157.539,146.284 128.725,115.574 111.010 C 112.689 109.346,113.020 109.415,112.604 110.391 M284.995 110.656 C 253.538 128.948,234.617 157.293,233.239 188.189 L 233.122 190.824 234.738 190.565 C 271.065 184.748,300.183 140.415,287.396 110.391 C 286.985 109.425,287.141 109.408,284.995 110.656 M118.028 117.855 C 143.063 134.008,158.502 156.883,161.880 182.827 C 162.045 184.095,162.155 185.157,162.125 185.187 C 162.094 185.217,161.110 184.950,159.939 184.595 C 131.254 175.898,109.511 143.994,114.823 118.395 C 115.352 115.847,115.006 115.905,118.028 117.855 M284.948 117.349 C 291.340 142.553,269.167 175.771,240.061 184.595 C 238.890 184.950,237.906 185.217,237.875 185.187 C 237.845 185.157,237.955 184.095,238.120 182.827 C 241.498 156.884,256.944 134.000,281.972 117.855 C 284.675 116.112,284.636 116.118,284.948 117.349 M86.300 153.877 C 82.966 154.347,76.125 156.178,76.270 156.562 C 76.432 156.992,94.129 174.039,98.554 178.028 C 125.147 202.002,145.124 207.665,162.675 196.207 C 163.623 195.588,164.399 195.034,164.399 194.975 C 164.399 194.916,163.623 194.670,162.675 194.428 C 148.581 190.826,138.434 184.717,121.622 169.712 C 109.456 158.855,104.557 155.760,96.973 154.140 C 94.526 153.617,89.093 153.484,86.300 153.877 M304.959 153.809 C 296.943 154.812,291.279 158.201,278.378 169.713 C 261.560 184.721,251.418 190.826,237.325 194.428 C 236.377 194.670,235.601 194.916,235.601 194.975 C 235.601 195.034,236.377 195.588,237.325 196.207 C 254.876 207.665,274.853 202.002,301.446 178.028 C 305.871 174.039,323.568 156.992,323.730 156.562 C 323.805 156.363,320.744 155.385,317.894 154.697 C 313.657 153.674,308.736 153.336,304.959 153.809 M95.261 158.546 C 102.147 159.713,107.071 162.784,118.546 173.070 C 132.351 185.445,141.253 191.533,151.318 195.482 L 152.682 196.017 151.567 196.327 C 138.648 199.919,123.111 193.487,103.728 176.523 C 98.542 171.984,85.182 159.218,85.182 158.802 C 85.182 158.274,92.554 158.087,95.261 158.546 M313.175 158.459 C 314.079 158.575,314.818 158.732,314.818 158.809 C 314.818 159.219,301.410 172.026,296.272 176.523 C 276.889 193.487,261.352 199.919,248.433 196.327 L 247.318 196.017 248.682 195.482 C 258.747 191.533,267.649 185.445,281.454 173.070 C 296.035 160.001,302.386 157.075,313.175 158.459 M113.141 207.848 C 89.350 209.926,73.531 226.894,73.540 250.326 C 73.553 284.241,106.038 304.556,144.734 294.849 C 162.149 290.480,183.118 276.854,199.333 259.368 L 201.150 257.408 201.753 257.921 C 224.695 277.449,254.345 292.717,275.303 295.795 C 304.900 300.142,326.506 283.377,326.457 256.104 C 326.412 231.633,307.795 212.034,281.454 208.727 C 257.879 205.767,226.021 219.433,198.965 244.113 L 196.887 246.008 194.856 243.954 C 171.387 220.226,138.384 205.643,113.141 207.848 M126.934 216.483 C 148.895 219.137,175.970 232.751,190.247 248.318 L 192.516 250.792 190.992 252.344 C 176.740 266.862,156.745 280.223,141.845 285.184 C 110.568 295.599,79.506 276.321,83.118 248.738 C 86.144 225.628,102.568 213.538,126.934 216.483 M282.199 218.756 C 287.973 219.480,294.407 221.842,300.489 225.471 C 315.063 234.166,320.698 247.163,316.390 262.148 C 310.516 282.582,293.357 290.618,267.008 285.274 C 246.674 281.150,221.404 268.253,208.779 255.555 L 206.281 253.043 207.195 252.232 C 233.219 229.130,262.107 216.236,282.199 218.756 M0.000 390.308 L 0.000 391.799 200.000 391.799 L 400.000 391.799 400.000 390.308 L 400.000 388.816 200.000 388.816 L 0.000 388.816 0.000 390.308 " stroke="none" fill="#d2ae6d" fill-rule="evenodd"></path><path id="path1" d="M86.114 282.258 C 86.114 282.290,86.386 282.562,86.719 282.864 L 87.325 283.411 86.778 282.805 C 86.267 282.241,86.114 282.114,86.114 282.258 M93.957 310.205 C 93.868 310.436,88.209 323.935,81.380 340.203 C 74.552 356.471,68.966 369.870,68.966 369.979 C 68.966 370.112,70.230 370.177,72.843 370.177 L 76.721 370.177 79.801 362.582 L 82.881 354.986 93.924 354.986 L 104.967 354.986 107.965 362.582 L 110.962 370.177 115.522 370.177 C 119.773 370.177,120.075 370.155,119.991 369.851 C 119.942 369.671,114.302 356.188,107.458 339.888 C 100.615 323.588,94.974 310.147,94.925 310.019 C 94.775 309.632,94.131 309.756,93.957 310.205 M224.184 310.009 C 224.132 310.142,218.490 323.588,211.646 339.888 C 204.802 356.188,199.163 369.671,199.114 369.851 C 199.031 370.154,199.301 370.177,202.939 370.177 L 206.853 370.177 208.537 366.030 C 209.463 363.749,210.851 360.331,211.621 358.434 L 213.021 354.986 224.061 354.986 L 235.100 354.986 238.100 362.581 L 241.100 370.176 245.640 370.177 L 250.180 370.177 250.071 369.758 C 250.011 369.527,244.346 355.960,237.482 339.609 C 224.837 309.486,224.596 308.951,224.184 310.009 M7.642 340.261 L 7.642 370.177 11.680 370.177 L 15.717 370.177 15.604 349.632 L 15.491 329.088 18.146 331.785 C 43.687 357.735,57.844 372.041,57.983 372.041 C 58.087 372.041,58.155 360.275,58.155 342.125 L 58.155 312.209 54.236 312.209 L 50.317 312.209 50.368 332.990 L 50.419 353.772 48.816 352.142 C 47.933 351.246,38.428 341.475,27.693 330.429 C 16.958 319.383,8.055 310.345,7.908 310.345 C 7.679 310.345,7.642 314.461,7.642 340.261 M130.662 340.261 L 130.662 370.177 134.482 370.177 L 138.302 370.177 138.349 352.100 L 138.397 334.022 148.742 348.461 C 154.432 356.403,159.166 362.876,159.262 362.846 C 159.359 362.815,164.140 356.129,169.887 347.988 L 180.336 333.184 180.383 351.681 L 180.431 370.177 184.344 370.177 L 188.257 370.177 188.257 340.220 C 188.257 311.007,188.249 310.271,187.911 310.630 C 187.720 310.832,181.338 319.699,173.728 330.335 C 166.119 340.971,159.753 349.844,159.583 350.053 C 159.283 350.421,158.813 349.781,145.118 330.389 C 137.333 319.365,130.895 310.345,130.813 310.345 C 130.730 310.345,130.662 323.807,130.662 340.261 M273.213 312.111 C 264.739 313.502,259.626 318.894,259.324 326.757 C 259.025 334.569,262.484 338.417,274.042 343.130 C 283.222 346.873,285.951 349.209,286.251 353.579 C 286.957 363.887,273.464 367.009,261.451 359.316 C 260.614 358.780,259.927 358.454,259.834 358.549 C 259.587 358.802,256.477 364.389,256.477 364.578 C 256.477 365.495,264.953 369.270,268.788 370.061 C 283.120 373.018,294.057 366.499,294.453 354.761 C 294.761 345.654,291.101 341.259,279.578 336.898 C 270.392 333.422,267.322 330.719,267.510 326.271 C 267.830 318.695,277.919 316.614,289.069 321.825 C 290.039 322.278,290.852 322.628,290.876 322.601 C 290.899 322.575,291.596 321.197,292.424 319.539 L 293.930 316.525 292.928 315.959 C 287.402 312.840,278.891 311.179,273.213 312.111 M302.703 316.030 L 302.703 319.851 310.252 319.851 L 317.801 319.851 317.801 345.014 L 317.801 370.177 321.808 370.177 L 325.815 370.177 325.815 345.014 L 325.815 319.851 333.551 319.851 L 341.286 319.851 341.286 316.030 L 341.286 312.209 321.994 312.209 L 302.703 312.209 302.703 316.030 M353.402 341.193 L 353.402 370.177 372.880 370.177 L 392.358 370.177 392.358 366.263 L 392.358 362.349 376.887 362.349 L 361.417 362.349 361.417 353.588 L 361.417 344.828 374.744 344.828 L 388.071 344.828 388.071 341.007 L 388.071 337.185 374.744 337.185 L 361.417 337.185 361.417 328.518 L 361.417 319.851 376.328 319.851 L 391.240 319.851 391.240 316.030 L 391.240 312.209 372.321 312.209 L 353.402 312.209 353.402 341.193 M98.314 337.999 C 100.431 343.419,102.129 347.886,102.089 347.927 C 102.048 347.967,98.372 347.978,93.920 347.952 L 85.825 347.903 89.684 338.397 C 91.806 333.169,93.681 328.555,93.850 328.145 C 94.121 327.488,94.176 327.444,94.311 327.773 C 94.396 327.978,96.197 332.580,98.314 337.999 M228.323 337.650 C 230.481 343.178,232.246 347.768,232.246 347.849 C 232.246 347.930,228.588 347.996,224.116 347.996 C 216.462 347.996,215.992 347.977,216.080 347.670 C 216.131 347.491,217.912 343.066,220.037 337.838 C 222.163 332.610,223.978 328.131,224.072 327.887 C 224.306 327.274,223.984 326.536,228.323 337.650 M64.119 407.634 C 53.814 409.568,53.400 424.884,63.581 427.516 C 66.149 428.179,69.847 427.843,72.355 426.717 C 73.605 426.156,73.598 426.180,72.944 424.679 L 72.449 423.542 70.847 424.212 C 63.595 427.244,56.789 420.848,60.089 414.102 C 62.047 410.101,67.681 409.151,70.559 412.337 C 71.352 413.214,71.417 413.195,73.605 411.438 C 73.786 411.293,72.179 409.602,71.318 409.031 C 69.484 407.816,66.371 407.211,64.119 407.634 M143.734 407.657 C 138.751 408.636,137.598 414.739,141.893 417.399 C 142.175 417.574,143.415 418.127,144.649 418.628 C 148.019 419.996,148.880 420.824,148.690 422.513 C 148.373 425.328,144.277 426.032,140.852 423.860 L 139.991 423.314 139.334 424.489 C 138.494 425.991,138.485 425.942,139.748 426.610 C 145.533 429.671,151.625 427.345,151.629 422.074 C 151.632 418.957,150.582 417.772,146.261 416.013 C 143.564 414.916,142.701 414.298,142.383 413.235 C 141.534 410.402,146.227 409.107,148.445 411.562 L 149.105 412.292 150.226 411.598 C 151.566 410.769,151.601 410.542,150.556 409.468 C 148.958 407.823,146.375 407.137,143.734 407.657 M163.159 407.647 C 150.911 409.851,152.680 427.817,165.144 427.817 C 178.561 427.817,179.114 408.219,165.716 407.554 C 164.838 407.510,163.687 407.552,163.159 407.647 M223.060 407.659 C 219.497 408.498,218.100 412.274,220.201 415.385 L 220.806 416.280 219.694 417.042 C 216.564 419.183,216.014 423.196,218.467 425.989 C 220.713 428.548,226.247 428.444,229.084 425.791 C 229.763 425.156,230.104 424.952,230.274 425.079 C 230.406 425.176,230.925 425.571,231.427 425.955 C 232.623 426.871,234.093 427.594,235.008 427.717 L 235.743 427.816 236.157 426.571 C 236.385 425.886,236.542 425.300,236.506 425.270 C 236.469 425.239,235.993 425.067,235.448 424.889 C 234.531 424.589,231.840 422.953,231.584 422.539 C 231.523 422.440,231.642 421.836,231.848 421.198 C 232.054 420.560,232.317 419.555,232.434 418.966 L 232.645 417.894 234.030 417.894 L 235.415 417.894 235.415 416.682 L 235.415 415.471 232.832 415.471 L 230.249 415.471 230.132 416.584 C 229.985 417.990,229.461 420.317,229.292 420.317 C 229.008 420.317,223.567 415.228,222.898 414.337 C 220.518 411.170,224.308 408.386,227.252 411.139 C 227.816 411.667,227.896 411.641,229.256 410.481 L 229.902 409.932 229.163 409.250 C 227.572 407.781,225.184 407.159,223.060 407.659 M274.632 407.630 C 268.681 408.577,265.025 414.226,266.450 420.272 C 268.943 430.843,285.081 430.142,286.692 419.393 C 287.776 412.158,281.941 406.466,274.632 407.630 M336.506 407.637 C 333.711 408.234,332.111 410.176,332.122 412.957 C 332.133 415.820,333.127 416.849,337.708 418.743 C 340.813 420.026,341.473 420.651,341.472 422.303 C 341.469 425.388,337.023 426.148,333.355 423.690 L 332.786 423.309 332.096 424.507 C 331.249 425.980,331.246 425.908,332.174 426.438 C 337.828 429.667,344.492 427.384,344.532 422.204 C 344.557 418.994,343.239 417.602,338.431 415.760 C 336.075 414.858,335.135 414.037,335.135 412.881 C 335.135 410.073,338.993 409.215,341.234 411.525 L 341.958 412.271 343.115 411.535 L 344.272 410.799 343.996 410.265 C 342.994 408.327,339.316 407.037,336.506 407.637 M4.846 417.709 L 4.846 427.614 9.646 427.554 C 14.992 427.486,15.336 427.416,16.861 426.077 C 19.554 423.712,18.707 418.200,15.529 417.402 C 14.991 417.267,14.945 417.378,15.987 416.297 C 18.359 413.836,17.596 409.766,14.499 408.367 C 13.566 407.945,13.283 407.919,9.180 407.863 L 4.846 407.804 4.846 417.709 M22.367 417.707 L 22.367 427.586 28.518 427.586 L 34.669 427.586 34.669 426.281 L 34.669 424.977 30.009 424.977 L 25.349 424.977 25.349 421.994 L 25.349 419.012 29.637 419.012 L 33.924 419.012 33.924 417.707 L 33.924 416.403 29.637 416.403 L 25.349 416.403 25.349 413.420 L 25.349 410.438 29.916 410.438 L 34.483 410.438 34.483 409.133 L 34.483 407.829 28.425 407.829 L 22.367 407.829 22.367 417.707 M40.664 416.729 C 38.803 421.624,37.113 426.069,36.908 426.608 L 36.535 427.586 38.095 427.586 L 39.655 427.586 40.564 425.072 L 41.473 422.558 45.582 422.556 L 49.692 422.554 50.609 425.070 L 51.526 427.586 53.070 427.586 C 53.919 427.586,54.614 427.523,54.616 427.446 C 54.617 427.370,52.961 422.924,50.935 417.568 L 47.251 407.830 45.648 407.829 L 44.046 407.829 40.664 416.729 M77.167 417.707 L 77.167 427.586 78.658 427.586 L 80.149 427.586 80.149 423.299 L 80.149 419.012 85.368 419.012 L 90.587 419.012 90.587 423.299 L 90.587 427.586 92.078 427.586 L 93.569 427.586 93.569 417.707 L 93.569 407.829 92.078 407.829 L 90.587 407.829 90.587 412.116 L 90.587 416.403 85.368 416.403 L 80.149 416.403 80.149 412.116 L 80.149 407.829 78.658 407.829 L 77.167 407.829 77.167 417.707 M105.312 417.695 L 105.312 427.586 106.803 427.586 L 108.295 427.586 108.295 423.579 L 108.295 419.571 109.589 419.571 L 110.883 419.571 112.614 422.115 C 115.462 426.301,116.988 427.586,119.109 427.586 L 119.986 427.586 120.198 426.530 C 120.496 425.047,120.493 425.038,119.679 424.907 C 118.392 424.702,117.144 423.490,114.633 420.007 L 114.073 419.232 114.884 418.839 C 119.081 416.807,119.216 410.672,115.109 408.574 L 113.832 407.922 109.572 407.863 L 105.312 407.803 105.312 417.695 M123.020 417.707 L 123.020 427.586 129.171 427.586 L 135.322 427.586 135.322 426.281 L 135.322 424.977 130.662 424.977 L 126.002 424.977 126.002 421.994 L 126.002 419.012 130.289 419.012 L 134.576 419.012 134.576 417.707 L 134.576 416.403 130.289 416.403 L 126.002 416.403 126.002 413.420 L 126.002 410.438 130.568 410.438 L 135.135 410.438 135.135 409.133 L 135.135 407.829 129.077 407.829 L 123.020 407.829 123.020 417.707 M179.497 417.695 L 179.497 427.586 180.988 427.586 L 182.479 427.586 182.479 423.579 L 182.479 419.571 183.776 419.571 L 185.073 419.571 186.763 422.072 C 189.584 426.248,191.169 427.586,193.294 427.586 L 194.170 427.586 194.382 426.530 C 194.680 425.047,194.677 425.038,193.864 424.907 C 192.576 424.702,191.329 423.490,188.817 420.007 L 188.258 419.232 189.068 418.839 C 193.260 416.810,193.395 410.669,189.294 408.574 L 188.017 407.922 183.757 407.863 L 179.497 407.803 179.497 417.695 M194.781 409.133 L 194.781 410.438 197.670 410.438 L 200.559 410.438 200.559 419.012 L 200.559 427.586 202.050 427.586 L 203.541 427.586 203.541 419.012 L 203.541 410.438 206.337 410.438 L 209.133 410.438 209.133 409.133 L 209.133 407.829 201.957 407.829 L 194.781 407.829 194.781 409.133 M245.853 417.707 L 245.853 427.586 247.344 427.586 L 248.835 427.586 248.835 423.299 L 248.835 419.012 253.961 419.012 L 259.087 419.012 259.087 423.299 L 259.087 427.586 260.578 427.586 L 262.069 427.586 262.069 417.707 L 262.069 407.829 260.578 407.829 L 259.087 407.829 259.087 412.116 L 259.087 416.403 253.961 416.403 L 248.835 416.403 248.835 412.116 L 248.835 407.829 247.344 407.829 L 245.853 407.829 245.853 417.707 M291.331 408.714 C 291.330 409.201,291.121 413.374,290.867 417.987 C 290.613 422.600,290.405 426.647,290.403 426.980 L 290.401 427.586 291.784 427.586 L 293.167 427.586 293.275 426.421 C 293.335 425.781,293.530 422.238,293.709 418.550 L 294.035 411.843 296.737 417.478 L 299.438 423.113 300.711 423.113 L 301.985 423.113 304.755 417.474 C 307.219 412.457,307.526 411.918,307.539 412.582 C 307.548 412.992,307.720 416.389,307.922 420.130 C 308.124 423.872,308.290 427.081,308.292 427.260 C 308.294 427.544,308.492 427.586,309.812 427.586 L 311.330 427.586 311.216 425.955 C 311.154 425.058,310.928 420.969,310.716 416.869 C 310.503 412.768,310.285 409.053,310.232 408.614 L 310.134 407.815 308.329 407.869 L 306.524 407.922 303.649 413.607 L 300.775 419.292 297.979 413.560 L 295.183 407.829 293.258 407.829 L 291.333 407.829 291.331 408.714 M315.937 417.707 L 315.937 427.586 322.088 427.586 L 328.239 427.586 328.239 426.281 L 328.239 424.977 323.579 424.977 L 318.919 424.977 318.919 421.994 L 318.919 419.012 323.206 419.012 L 327.493 419.012 327.493 417.707 L 327.493 416.403 323.206 416.403 L 318.919 416.403 318.919 413.420 L 318.919 410.438 323.486 410.438 L 328.052 410.438 328.052 409.133 L 328.052 407.829 321.994 407.829 L 315.937 407.829 315.937 417.707 M346.319 409.133 L 346.319 410.438 349.115 410.438 L 351.911 410.438 351.911 419.012 L 351.911 427.586 353.402 427.586 L 354.893 427.586 354.893 419.012 L 354.893 410.438 357.689 410.438 L 360.485 410.438 360.485 409.133 L 360.485 407.829 353.402 407.829 L 346.319 407.829 346.319 409.133 M364.436 417.306 C 362.457 422.518,360.790 426.966,360.731 427.192 C 360.626 427.593,360.657 427.601,362.158 427.548 L 363.693 427.493 364.572 425.070 L 365.450 422.647 369.561 422.597 L 373.672 422.547 374.583 425.020 L 375.494 427.493 377.123 427.547 L 378.751 427.601 378.402 426.708 C 378.209 426.217,376.519 421.768,374.645 416.822 L 371.238 407.829 369.636 407.830 L 368.034 407.831 364.436 417.306 M379.149 408.900 C 379.485 409.490,381.042 412.195,382.610 414.911 L 385.460 419.851 385.461 423.719 L 385.461 427.586 386.952 427.586 L 388.444 427.586 388.444 423.664 L 388.444 419.742 391.711 414.066 C 393.508 410.943,395.028 408.259,395.089 408.101 C 395.184 407.853,394.984 407.820,393.644 407.867 L 392.087 407.922 389.576 412.365 C 387.311 416.373,387.040 416.775,386.814 416.466 C 386.676 416.277,385.507 414.257,384.218 411.976 L 381.873 407.829 380.205 407.829 L 378.537 407.829 379.149 408.900 M12.616 410.636 C 14.519 411.355,15.054 413.825,13.637 415.354 C 12.842 416.212,12.159 416.403,9.885 416.403 L 7.829 416.403 7.829 413.420 L 7.829 410.438 9.960 410.438 C 11.132 410.438,12.327 410.527,12.616 410.636 M113.335 410.867 C 114.832 411.659,115.404 413.548,114.649 415.209 C 114.002 416.635,112.805 417.148,110.131 417.148 L 108.295 417.148 108.295 413.793 L 108.295 410.438 110.409 410.438 C 112.256 410.438,112.625 410.492,113.335 410.867 M167.488 410.748 C 170.681 411.826,172.644 414.856,172.358 418.267 C 171.642 426.830,159.415 427.317,158.049 418.837 C 157.182 413.454,162.360 409.017,167.488 410.748 M187.446 410.824 C 189.720 411.925,189.685 415.562,187.388 416.699 C 186.846 416.967,186.165 417.068,184.576 417.117 L 182.479 417.180 182.479 413.809 L 182.479 410.438 184.564 410.438 C 186.291 410.438,186.785 410.504,187.446 410.824 M279.672 411.085 C 286.281 414.259,284.287 424.515,276.979 424.938 C 270.444 425.317,266.814 417.743,271.119 412.713 C 273.021 410.491,276.898 409.753,279.672 411.085 M47.225 415.769 C 48.008 417.933,48.649 419.757,48.649 419.824 C 48.649 419.890,47.256 419.944,45.553 419.944 C 43.154 419.944,42.477 419.892,42.545 419.711 C 42.593 419.583,43.287 417.693,44.087 415.511 C 44.887 413.328,45.599 411.609,45.671 411.689 C 45.742 411.770,46.441 413.606,47.225 415.769 M371.223 415.753 L 372.734 419.944 369.595 419.944 L 366.456 419.944 367.085 418.220 C 369.108 412.677,369.534 411.557,369.618 411.559 C 369.669 411.561,370.391 413.448,371.223 415.753 M225.276 420.515 C 228.306 423.265,228.159 423.032,227.353 423.811 C 225.130 425.959,221.079 425.534,220.142 423.054 C 219.633 421.706,220.269 419.730,221.548 418.685 C 222.514 417.897,222.247 417.766,225.276 420.515 M14.113 419.373 C 15.142 419.958,15.540 420.787,15.429 422.121 C 15.247 424.315,14.082 424.977,10.399 424.977 L 7.829 424.977 7.829 421.881 L 7.829 418.785 10.578 418.856 C 13.062 418.920,13.403 418.969,14.113 419.373 " stroke="none" fill="#373435" fill-rule="evenodd"></path><path id="path2" d="M199.134 55.729 C 193.672 56.881,191.671 63.442,195.588 67.359 C 198.618 70.389,204.101 69.517,205.977 65.707 C 208.411 60.763,204.223 54.656,199.134 55.729 " stroke="none" fill="#ed3237" fill-rule="evenodd"></path></g></svg>