<svg id="svg" version="1.1" xmlns="http://www.w3.org/2000/svg" xmlns:xlink="http://www.w3.org/1999/xlink" width="400" height="427.95899347623487" viewBox="0, 0, 400,427.95899347623487"><g id="svgg"><path id="path0" d="M199.467 1.351 C 199.260 1.992,198.746 3.858,198.325 5.499 C 195.963 14.707,192.516 22.299,184.613 35.694 C 179.063 45.101,176.897 48.885,174.740 52.936 C 159.141 82.238,157.872 102.984,170.797 117.393 C 172.029 118.766,172.931 119.582,173.066 119.448 C 173.106 119.407,172.595 117.532,171.930 115.279 C 166.524 96.958,166.364 89.856,171.036 75.626 C 173.871 66.990,178.143 57.825,187.042 41.286 C 191.783 32.474,195.959 24.273,197.561 20.623 C 198.153 19.276,198.931 17.594,199.289 16.886 L 199.941 15.598 200.695 16.979 C 201.110 17.738,201.852 19.324,202.345 20.503 C 203.604 23.516,207.984 32.135,212.765 41.007 C 221.967 58.084,225.953 66.603,228.895 75.486 C 233.577 89.620,233.383 97.320,227.878 115.823 C 226.700 119.782,226.701 119.871,227.892 118.721 C 238.575 108.415,240.764 93.012,234.300 73.625 C 230.747 62.967,226.840 55.168,215.020 35.135 C 207.515 22.417,203.758 14.042,201.473 4.939 C 200.170 -0.251,200.053 -0.460,199.467 1.351 M200.018 81.489 C 199.926 81.726,197.945 86.911,195.616 93.010 L 191.381 104.101 184.387 119.012 C 176.712 135.377,176.261 136.399,175.942 138.138 C 175.558 140.224,176.140 141.783,179.872 148.662 C 185.060 158.223,185.954 162.033,184.083 166.597 C 181.328 173.314,177.769 178.969,173.242 183.820 L 170.753 186.486 170.745 188.533 L 170.736 190.580 172.715 188.627 C 177.762 183.642,182.648 176.942,185.835 170.638 C 189.603 163.182,188.957 158.854,182.223 146.459 C 179.509 141.464,179.237 140.738,179.363 138.839 C 179.477 137.145,179.433 137.253,184.433 126.095 C 193.268 106.379,197.805 96.718,198.095 97.007 C 198.169 97.081,198.229 101.486,198.229 106.796 L 198.229 116.449 197.484 115.940 C 196.348 115.165,193.843 113.830,193.733 113.941 C 193.679 113.995,193.473 115.242,193.277 116.712 C 192.040 125.961,189.940 136.290,188.360 140.898 C 187.814 142.490,187.849 142.609,188.732 142.133 C 191.986 140.381,193.788 134.943,194.969 123.317 C 195.183 121.213,195.647 119.460,196.022 119.341 C 196.273 119.261,197.508 122.361,198.156 124.697 L 198.595 126.281 198.651 144.921 C 198.698 160.255,198.658 164.179,198.427 167.049 L 198.145 170.538 197.028 172.921 C 189.376 189.237,179.715 201.682,172.079 205.054 L 170.736 205.647 170.736 207.403 C 170.736 209.479,170.509 209.436,173.542 207.933 C 181.361 204.057,185.849 198.912,194.690 183.691 C 199.345 175.677,200.079 174.469,200.206 174.605 C 200.277 174.681,201.403 176.589,202.709 178.844 C 212.954 196.541,215.816 200.442,221.901 205.001 C 223.659 206.318,228.692 209.133,229.290 209.133 C 229.378 209.133,229.450 208.336,229.450 207.361 L 229.450 205.589 228.658 205.272 C 221.866 202.554,214.890 194.456,206.717 179.801 C 204.901 176.544,202.376 171.371,202.021 170.177 C 201.596 168.751,201.670 126.810,202.101 124.780 C 202.498 122.908,204.034 119.105,204.393 119.105 C 204.728 119.105,205.103 120.945,205.506 124.568 C 206.724 135.524,208.498 140.505,211.789 142.203 C 212.521 142.580,212.544 142.446,212.015 140.898 C 210.443 136.302,208.651 127.610,207.275 117.905 C 206.973 115.772,206.684 113.985,206.634 113.935 C 206.444 113.744,204.125 115.212,203.469 115.938 L 202.783 116.697 202.510 116.044 C 201.805 114.355,201.547 100.275,202.167 97.307 C 202.401 96.189,209.234 110.639,219.351 133.644 L 220.949 137.279 220.950 139.049 C 220.952 141.174,220.702 141.859,218.475 145.833 C 213.575 154.579,211.839 160.082,212.461 164.900 C 213.063 169.564,220.555 181.574,226.565 187.512 L 229.301 190.214 229.171 187.884 L 229.041 185.555 228.076 184.529 C 220.912 176.917,215.597 167.512,215.593 162.442 C 215.591 159.048,217.502 153.783,220.699 148.369 C 225.465 140.302,225.463 138.899,220.675 129.327 C 217.629 123.239,216.776 121.416,212.357 111.556 C 210.564 107.558,208.313 102.693,207.353 100.746 C 205.221 96.419,200.559 83.227,200.559 81.519 C 200.559 81.081,200.185 81.061,200.018 81.489 M112.604 110.391 C 109.650 117.327,108.825 127.028,110.444 135.788 C 115.267 161.873,139.918 186.507,165.262 190.565 L 166.878 190.824 166.761 188.189 C 165.394 157.539,146.284 128.725,115.574 111.010 C 112.689 109.346,113.020 109.415,112.604 110.391 M284.995 110.656 C 253.538 128.948,234.617 157.293,233.239 188.189 L 233.122 190.824 234.738 190.565 C 271.065 184.748,300.183 140.415,287.396 110.391 C 286.985 109.425,287.141 109.408,284.995 110.656 M118.028 117.855 C 143.063 134.008,158.502 156.883,161.880 182.827 C 162.045 184.095,162.155 185.157,162.125 185.187 C 162.094 185.217,161.110 184.950,159.939 184.595 C 131.254 175.898,109.511 143.994,114.823 118.395 C 115.352 115.847,115.006 115.905,118.028 117.855 M284.948 117.349 C 291.340 142.553,269.167 175.771,240.061 184.595 C 238.890 184.950,237.906 185.217,237.875 185.187 C 237.845 185.157,237.955 184.095,238.120 182.827 C 241.498 156.884,256.944 134.000,281.972 117.855 C 284.675 116.112,284.636 116.118,284.948 117.349 M86.300 153.877 C 82.966 154.347,76.125 156.178,76.270 156.562 C 76.432 156.992,94.129 174.039,98.554 178.028 C 125.147 202.002,145.124 207.665,162.675 196.207 C 163.623 195.588,164.399 195.034,164.399 194.975 C 164.399 194.916,163.623 194.670,162.675 194.428 C 148.581 190.826,138.434 184.717,121.622 169.712 C 109.456 158.855,104.557 155.760,96.973 154.140 C 94.526 153.617,89.093 153.484,86.300 153.877 M304.959 153.809 C 296.943 154.812,291.279 158.201,278.378 169.713 C 261.560 184.721,251.418 190.826,237.325 194.428 C 236.377 194.670,235.601 194.916,235.601 194.975 C 235.601 195.034,236.377 195.588,237.325 196.207 C 254.876 207.665,274.853 202.002,301.446 178.028 C 305.871 174.039,323.568 156.992,323.730 156.562 C 323.805 156.363,320.744 155.385,317.894 154.697 C 313.657 153.674,308.736 153.336,304.959 153.809 M95.261 158.546 C 102.147 159.713,107.071 162.784,118.546 173.070 C 132.351 185.445,141.253 191.533,151.318 195.482 L 152.682 196.017 151.567 196.327 C 138.648 199.919,123.111 193.487,103.728 176.523 C 98.542 171.984,85.182 159.218,85.182 158.802 C 85.182 158.274,92.554 158.087,95.261 158.546 M313.175 158.459 C 314.079 158.575,314.818 158.732,314.818 158.809 C 314.818 159.219,301.410 172.026,296.272 176.523 C 276.889 193.487,261.352 199.919,248.433 196.327 L 247.318 196.017 248.682 195.482 C 258.747 191.533,267.649 185.445,281.454 173.070 C 296.035 160.001,302.386 157.075,313.175 158.459 M113.141 207.848 C 89.350 209.926,73.531 226.894,73.540 250.326 C 73.553 284.241,106.038 304.556,144.734 294.849 C 162.149 290.480,183.118 276.854,199.333 259.368 L 201.150 257.408 201.753 257.921 C 224.695 277.449,254.345 292.717,275.303 295.795 C 304.900 300.142,326.506 283.377,326.457 256.104 C 326.412 231.633,307.795 212.034,281.454 208.727 C 257.879 205.767,226.021 219.433,198.965 244.113 L 196.887 246.008 194.856 243.954 C 171.387 220.226,138.384 205.643,113.141 207.848 M126.934 216.483 C 148.895 219.137,175.970 232.751,190.247 248.318 L 192.516 250.792 190.992 252.344 C 176.740 266.862,156.745 280.223,141.845 285.184 C 110.568 295.599,79.506 276.321,83.118 248.738 C 86.144 225.628,102.568 213.538,126.934 216.483 M282.199 218.756 C 287.973 219.480,294.407 221.842,300.489 225.471 C 315.063 234.166,320.698 247.163,316.390 262.148 C 310.516 282.582,293.357 290.618,267.008 285.274 C 246.674 281.150,221.404 268.253,208.779 255.555 L 206.281 253.043 207.195 252.232 C 233.219 229.130,262.107 216.236,282.199 218.756 M0.000 390.308 " stroke="none" fill="#f7d598" fill-rule="evenodd"></path></g></svg>